<?xml version="1.0" encoding="UTF-8"?>
<svg xmlns="http://www.w3.org/2000/svg" version="1.1" viewBox="0 0 113.6 79">
  <defs>
    <style>
      .cls-1 {
        stroke-linecap: square;
      }

      .cls-1, .cls-2, .cls-3, .cls-4 {
        fill: none;
      }

      .cls-1, .cls-3, .cls-4 {
        stroke-miterlimit: 10;
        stroke-width: 4px;
      }

      .cls-1, .cls-4 {
        stroke: #000;
      }

      .cls-5 {
        fill: #cae3f6;
      }

      .cls-3 {
        stroke: #0a0b0b;
      }

      .cls-6 {
        fill: #f5b952;
      }
    </style>
  </defs>
  <!-- Generator: Adobe Illustrator 28.6.0, SVG Export Plug-In . SVG Version: 1.2.0 Build 709)  -->
  <g>
    <g id="Livello_1">
      <g id="Layer_1-2">
        <path class="cls-6" d="M40.4,15.9c-13.7,0-24.8,11.1-24.8,24.8,0,13.7,11.1,24.8,24.8,24.8,13.7,0,24.8-11.1,24.8-24.8h0c0-13.7-11.1-24.8-24.8-24.8Z"/>
        <path class="cls-5" d="M91,77h-52.1c-2.2,0-5.1-1.7-5.9-3.6-1.8-2.9-2-6.5-.4-9.6,1.9-3.4,5.5-5.3,9.4-5,1.6,0,1.9-.5,2.1-1.8,1.6-10.1,9.6-18.1,19.7-19.8h.1c5.6-.8,11.2.4,16,3.4.5.3.9.6,1.4.9,2.6,2,4.8,4.5,6.5,7.3l.8,1.3"/>
        <path class="cls-5" d="M66.2,63.8c.6-4.4,3.9-7.8,8.2-8.7.7-.1,1.3-.2,2-.2,2.7,0,5.2,1,7.2,2.8,1.4,1.3,2.4,2.9,2.8,4.8"/>
        <path class="cls-5" d="M80.3,55.6c3-4.7,9.9-6.4,15.5-5.2,5,.9,8.9,4.7,10,9.7.7,3.1.9,4.2,3.3,5.9,3.4,2.3,3.1,7.5.4,10-.7.6-1.7,1-2.6,1h-18"/>
        <line class="cls-2" x1="94.7" y1="76.9" x2="100.1" y2="76.9"/>
        <path class="cls-4" d="M63.2,31c-5.2-12.7-19.7-18.7-32.3-13.6-12.7,5.2-18.7,19.7-13.6,32.3,2.1,5.2,5.9,9.5,10.8,12.2"/>
        <line class="cls-1" x1="40.2" y1="15.5" x2="40.2" y2="2"/>
        <line class="cls-1" x1="15.5" y1="40.5" x2="2" y2="40.5"/>
        <line class="cls-1" x1="22.7" y1="22.9" x2="13.1" y2="13.3"/>
        <line class="cls-1" x1="57.8" y1="22.7" x2="67.4" y2="13.1"/>
        <line class="cls-1" x1="22.9" y1="58" x2="13.3" y2="67.5"/>
        <path class="cls-3" d="M91,77h-52.1c-2.2,0-5.1-1.7-5.9-3.6-1.8-2.9-2-6.5-.4-9.6,1.9-3.4,5.5-5.3,9.4-5,1.6,0,1.9-.5,2.1-1.8,1.6-10.1,9.6-18.1,19.7-19.8h.1c5.6-.8,11.2.4,16,3.4.5.3.9.6,1.4.9,2.6,2,4.8,4.5,6.5,7.3l.8,1.3"/>
        <path class="cls-3" d="M66.2,63.8c.6-4.4,3.9-7.8,8.2-8.7.7-.1,1.3-.2,2-.2,2.7,0,5.2,1,7.2,2.8,1.4,1.3,2.4,2.9,2.8,4.8"/>
        <path class="cls-3" d="M80.3,55.6c3-4.7,9.9-6.4,15.5-5.2,5,.9,8.9,4.7,10,9.7.7,3.1.9,4.2,3.3,5.9,3.4,2.3,3.1,7.5.4,10-.7.6-1.7,1-2.6,1h-3.4"/>
        <line class="cls-3" x1="94.7" y1="76.9" x2="100.1" y2="76.9"/>
      </g>
    </g>
  </g>
</svg>